<?xml version="1.0" encoding="UTF-8" ?>
<!DOCTYPE score-partwise PUBLIC '-//Recordare//DTD MusicXML 2.0 Partwise//EN' 'http://www.musicxml.org/dtds/2.0/partwise.dtd'>
<score-partwise version="2.0">
 <identification>
  <encoding>
   <encoding-date>2020-09-14</encoding-date>
   <software>Guitar Pro 7.5.0</software>
  </encoding>
 </identification>
 <defaults>
  <scaling>
   <millimeters>6.4</millimeters>
   <tenths>40</tenths>
  </scaling>
  <page-layout>
   <page-height>1850</page-height>
   <page-width>1310</page-width>
  </page-layout>
 </defaults>
 <part-list>
  <score-part id="P1">
   <part-name>Acoustic Piano</part-name>
   <part-abbreviation>pno.</part-abbreviation>
   <midi-instrument id="P1">
    <midi-channel>1</midi-channel>
    <midi-bank>1</midi-bank>
    <midi-program>1</midi-program>
    <volume>80</volume>
    <pan>0</pan>
   </midi-instrument>
  </score-part>
 </part-list>
 <part id="P1">
  <measure number="1">
   <attributes>
    <divisions>2</divisions>
    <key>
     <fifths>0</fifths>
     <mode>major</mode>
    </key>
    <time>
     <beats>12</beats>
     <beat-type>8</beat-type>
    </time>
    <staves>2</staves>
    <clef number="1">
     <sign>G</sign>
     <line>2</line>
    </clef>
    <clef number="2">
     <sign>F</sign>
     <line>4</line>
    </clef>
    <staff-details number="1">
     <staff-tuning line="1">
      <tuning-step>E</tuning-step>
      <tuning-octave>2</tuning-octave>
     </staff-tuning>
     <staff-tuning line="2">
      <tuning-step>A</tuning-step>
      <tuning-octave>2</tuning-octave>
     </staff-tuning>
     <staff-tuning line="3">
      <tuning-step>D</tuning-step>
      <tuning-octave>3</tuning-octave>
     </staff-tuning>
     <staff-tuning line="4">
      <tuning-step>G</tuning-step>
      <tuning-octave>3</tuning-octave>
     </staff-tuning>
     <staff-tuning line="5">
      <tuning-step>B</tuning-step>
      <tuning-octave>3</tuning-octave>
     </staff-tuning>
     <staff-tuning line="6">
      <tuning-step>E</tuning-step>
      <tuning-octave>4</tuning-octave>
     </staff-tuning>
    </staff-details>
    <staff-details number="2">
     <staff-tuning line="1">
      <tuning-step>B</tuning-step>
      <tuning-octave>0</tuning-octave>
     </staff-tuning>
     <staff-tuning line="2">
      <tuning-step>E</tuning-step>
      <tuning-octave>1</tuning-octave>
     </staff-tuning>
     <staff-tuning line="3">
      <tuning-step>A</tuning-step>
      <tuning-octave>1</tuning-octave>
     </staff-tuning>
     <staff-tuning line="4">
      <tuning-step>D</tuning-step>
      <tuning-octave>2</tuning-octave>
     </staff-tuning>
     <staff-tuning line="5">
      <tuning-step>G</tuning-step>
      <tuning-octave>2</tuning-octave>
     </staff-tuning>
    </staff-details>
   </attributes>
   <direction directive="yes">
    <direction-type>
     <metronome parentheses="yes" default-y="40">
      <beat-unit>quarter</beat-unit>
      <per-minute>110</per-minute>
     </metronome>
    </direction-type>
    <sound tempo="110"/>
   </direction>
   <note>
    <pitch>
     <step>C</step>
     <octave>4</octave>
    </pitch>
    <duration>1</duration>
    <voice>1</voice>
    <type>eighth</type>
    <stem>up</stem>
    <notehead>normal</notehead>
    <staff>1</staff>
    <beam number="1">begin</beam>
    <notations>
     <dynamics>
      <mf/>
     </dynamics>
     <technical>
      <string>2</string>
      <fret>1</fret>
     </technical>
    </notations>
   </note>
   <note>
    <pitch>
     <step>C</step>
     <alter>1</alter>
     <octave>4</octave>
    </pitch>
    <duration>1</duration>
    <voice>1</voice>
    <type>eighth</type>
    <accidental>sharp</accidental>
    <stem>up</stem>
    <notehead>normal</notehead>
    <staff>1</staff>
    <beam number="1">continue</beam>
    <notations>
     <dynamics>
      <mf/>
     </dynamics>
     <technical>
      <string>2</string>
      <fret>2</fret>
     </technical>
    </notations>
   </note>
   <note>
    <pitch>
     <step>D</step>
     <octave>4</octave>
    </pitch>
    <duration>1</duration>
    <voice>1</voice>
    <type>eighth</type>
    <stem>up</stem>
    <notehead>normal</notehead>
    <staff>1</staff>
    <beam number="1">end</beam>
    <notations>
     <dynamics>
      <mf/>
     </dynamics>
     <technical>
      <string>2</string>
      <fret>3</fret>
     </technical>
    </notations>
   </note>
   <note>
    <pitch>
     <step>D</step>
     <alter>1</alter>
     <octave>4</octave>
    </pitch>
    <duration>1</duration>
    <voice>1</voice>
    <type>eighth</type>
    <accidental>sharp</accidental>
    <stem>up</stem>
    <notehead>normal</notehead>
    <staff>1</staff>
    <beam number="1">begin</beam>
    <notations>
     <dynamics>
      <mf/>
     </dynamics>
     <technical>
      <string>2</string>
      <fret>4</fret>
     </technical>
    </notations>
   </note>
   <note>
    <pitch>
     <step>E</step>
     <octave>4</octave>
    </pitch>
    <duration>1</duration>
    <voice>1</voice>
    <type>eighth</type>
    <stem>up</stem>
    <notehead>normal</notehead>
    <staff>1</staff>
    <beam number="1">continue</beam>
    <notations>
     <dynamics>
      <mf/>
     </dynamics>
     <technical>
      <string>2</string>
      <fret>5</fret>
     </technical>
    </notations>
   </note>
   <note>
    <pitch>
     <step>F</step>
     <octave>4</octave>
    </pitch>
    <duration>1</duration>
    <voice>1</voice>
    <type>eighth</type>
    <stem>up</stem>
    <notehead>normal</notehead>
    <staff>1</staff>
    <beam number="1">end</beam>
    <notations>
     <dynamics>
      <mf/>
     </dynamics>
     <technical>
      <string>2</string>
      <fret>6</fret>
     </technical>
    </notations>
   </note>
   <note>
    <pitch>
     <step>F</step>
     <alter>1</alter>
     <octave>4</octave>
    </pitch>
    <duration>1</duration>
    <voice>1</voice>
    <type>eighth</type>
    <accidental>sharp</accidental>
    <stem>up</stem>
    <notehead>normal</notehead>
    <staff>1</staff>
    <beam number="1">begin</beam>
    <notations>
     <dynamics>
      <mf/>
     </dynamics>
     <technical>
      <string>2</string>
      <fret>7</fret>
     </technical>
    </notations>
   </note>
   <note>
    <pitch>
     <step>G</step>
     <octave>4</octave>
    </pitch>
    <duration>1</duration>
    <voice>1</voice>
    <type>eighth</type>
    <stem>up</stem>
    <notehead>normal</notehead>
    <staff>1</staff>
    <beam number="1">continue</beam>
    <notations>
     <dynamics>
      <mf/>
     </dynamics>
     <technical>
      <string>2</string>
      <fret>8</fret>
     </technical>
    </notations>
   </note>
   <note>
    <pitch>
     <step>G</step>
     <alter>1</alter>
     <octave>4</octave>
    </pitch>
    <duration>1</duration>
    <voice>1</voice>
    <type>eighth</type>
    <accidental>sharp</accidental>
    <stem>up</stem>
    <notehead>normal</notehead>
    <staff>1</staff>
    <beam number="1">end</beam>
    <notations>
     <dynamics>
      <mf/>
     </dynamics>
     <technical>
      <string>2</string>
      <fret>9</fret>
     </technical>
    </notations>
   </note>
   <note>
    <pitch>
     <step>A</step>
     <octave>4</octave>
    </pitch>
    <duration>1</duration>
    <voice>1</voice>
    <type>eighth</type>
    <stem>up</stem>
    <notehead>normal</notehead>
    <staff>1</staff>
    <beam number="1">begin</beam>
    <notations>
     <dynamics>
      <mf/>
     </dynamics>
     <technical>
      <string>2</string>
      <fret>10</fret>
     </technical>
    </notations>
   </note>
   <note>
    <pitch>
     <step>A</step>
     <alter>1</alter>
     <octave>4</octave>
    </pitch>
    <duration>1</duration>
    <voice>1</voice>
    <type>eighth</type>
    <accidental>sharp</accidental>
    <stem>up</stem>
    <notehead>normal</notehead>
    <staff>1</staff>
    <beam number="1">continue</beam>
    <notations>
     <dynamics>
      <mf/>
     </dynamics>
     <technical>
      <string>2</string>
      <fret>11</fret>
     </technical>
    </notations>
   </note>
   <note>
    <pitch>
     <step>B</step>
     <octave>4</octave>
    </pitch>
    <duration>1</duration>
    <voice>1</voice>
    <type>eighth</type>
    <stem>up</stem>
    <notehead>normal</notehead>
    <staff>1</staff>
    <beam number="1">end</beam>
    <notations>
     <dynamics>
      <mf/>
     </dynamics>
     <technical>
      <string>2</string>
      <fret>12</fret>
     </technical>
    </notations>
   </note>
  </measure>
  <measure number="2">
   <attributes>
    <key>
     <fifths>1</fifths>
     <mode>major</mode>
    </key>
   </attributes>
   <note>
    <pitch>
     <step>C</step>
     <octave>4</octave>
    </pitch>
    <duration>1</duration>
    <voice>1</voice>
    <type>eighth</type>
    <stem>up</stem>
    <notehead>normal</notehead>
    <staff>1</staff>
    <beam number="1">begin</beam>
    <notations>
     <technical>
      <string>4</string>
      <fret>10</fret>
     </technical>
    </notations>
   </note>
   <note>
    <pitch>
     <step>C</step>
     <alter>1</alter>
     <octave>4</octave>
    </pitch>
    <duration>1</duration>
    <voice>1</voice>
    <type>eighth</type>
    <accidental>sharp</accidental>
    <stem>up</stem>
    <notehead>normal</notehead>
    <staff>1</staff>
    <beam number="1">continue</beam>
    <notations>
     <technical>
      <string>4</string>
      <fret>11</fret>
     </technical>
    </notations>
   </note>
   <note>
    <pitch>
     <step>D</step>
     <octave>4</octave>
    </pitch>
    <duration>1</duration>
    <voice>1</voice>
    <type>eighth</type>
    <stem>up</stem>
    <notehead>normal</notehead>
    <staff>1</staff>
    <beam number="1">end</beam>
    <notations>
     <technical>
      <string>4</string>
      <fret>12</fret>
     </technical>
    </notations>
   </note>
   <note>
    <pitch>
     <step>D</step>
     <alter>1</alter>
     <octave>4</octave>
    </pitch>
    <duration>1</duration>
    <voice>1</voice>
    <type>eighth</type>
    <accidental>sharp</accidental>
    <stem>up</stem>
    <notehead>normal</notehead>
    <staff>1</staff>
    <beam number="1">begin</beam>
    <notations>
     <technical>
      <string>3</string>
      <fret>8</fret>
     </technical>
    </notations>
   </note>
   <note>
    <pitch>
     <step>E</step>
     <octave>4</octave>
    </pitch>
    <duration>1</duration>
    <voice>1</voice>
    <type>eighth</type>
    <stem>up</stem>
    <notehead>normal</notehead>
    <staff>1</staff>
    <beam number="1">continue</beam>
    <notations>
     <technical>
      <string>2</string>
      <fret>5</fret>
     </technical>
    </notations>
   </note>
   <note>
    <pitch>
     <step>F</step>
     <octave>4</octave>
    </pitch>
    <duration>1</duration>
    <voice>1</voice>
    <type>eighth</type>
    <accidental>natural</accidental>
    <stem>up</stem>
    <notehead>normal</notehead>
    <staff>1</staff>
    <beam number="1">end</beam>
    <notations>
     <technical>
      <string>2</string>
      <fret>6</fret>
     </technical>
    </notations>
   </note>
   <note>
    <pitch>
     <step>F</step>
     <alter>1</alter>
     <octave>4</octave>
    </pitch>
    <duration>1</duration>
    <voice>1</voice>
    <type>eighth</type>
    <accidental>sharp</accidental>
    <stem>up</stem>
    <notehead>normal</notehead>
    <staff>1</staff>
    <beam number="1">begin</beam>
    <notations>
     <technical>
      <string>2</string>
      <fret>7</fret>
     </technical>
    </notations>
   </note>
   <note>
    <pitch>
     <step>G</step>
     <octave>4</octave>
    </pitch>
    <duration>1</duration>
    <voice>1</voice>
    <type>eighth</type>
    <stem>up</stem>
    <notehead>normal</notehead>
    <staff>1</staff>
    <beam number="1">continue</beam>
    <notations>
     <technical>
      <string>2</string>
      <fret>8</fret>
     </technical>
    </notations>
   </note>
   <note>
    <pitch>
     <step>G</step>
     <alter>1</alter>
     <octave>4</octave>
    </pitch>
    <duration>1</duration>
    <voice>1</voice>
    <type>eighth</type>
    <accidental>sharp</accidental>
    <stem>up</stem>
    <notehead>normal</notehead>
    <staff>1</staff>
    <beam number="1">end</beam>
    <notations>
     <technical>
      <string>2</string>
      <fret>9</fret>
     </technical>
    </notations>
   </note>
   <note>
    <pitch>
     <step>A</step>
     <octave>4</octave>
    </pitch>
    <duration>1</duration>
    <voice>1</voice>
    <type>eighth</type>
    <stem>up</stem>
    <notehead>normal</notehead>
    <staff>1</staff>
    <beam number="1">begin</beam>
    <notations>
     <technical>
      <string>2</string>
      <fret>10</fret>
     </technical>
    </notations>
   </note>
   <note>
    <pitch>
     <step>A</step>
     <alter>1</alter>
     <octave>4</octave>
    </pitch>
    <duration>1</duration>
    <voice>1</voice>
    <type>eighth</type>
    <accidental>sharp</accidental>
    <stem>up</stem>
    <notehead>normal</notehead>
    <staff>1</staff>
    <beam number="1">continue</beam>
    <notations>
     <technical>
      <string>2</string>
      <fret>11</fret>
     </technical>
    </notations>
   </note>
   <note>
    <pitch>
     <step>B</step>
     <octave>4</octave>
    </pitch>
    <duration>1</duration>
    <voice>1</voice>
    <type>eighth</type>
    <stem>up</stem>
    <notehead>normal</notehead>
    <staff>1</staff>
    <beam number="1">end</beam>
    <notations>
     <technical>
      <string>2</string>
      <fret>12</fret>
     </technical>
    </notations>
   </note>
  </measure>
  <measure number="3">
   <attributes>
    <key>
     <fifths>2</fifths>
     <mode>major</mode>
    </key>
   </attributes>
   <note>
    <pitch>
     <step>C</step>
     <octave>4</octave>
    </pitch>
    <duration>1</duration>
    <voice>1</voice>
    <type>eighth</type>
    <accidental>natural</accidental>
    <stem>up</stem>
    <notehead>normal</notehead>
    <staff>1</staff>
    <beam number="1">begin</beam>
    <notations>
     <technical>
      <string>4</string>
      <fret>10</fret>
     </technical>
    </notations>
   </note>
   <note>
    <pitch>
     <step>C</step>
     <alter>1</alter>
     <octave>4</octave>
    </pitch>
    <duration>1</duration>
    <voice>1</voice>
    <type>eighth</type>
    <accidental>sharp</accidental>
    <stem>up</stem>
    <notehead>normal</notehead>
    <staff>1</staff>
    <beam number="1">continue</beam>
    <notations>
     <technical>
      <string>4</string>
      <fret>11</fret>
     </technical>
    </notations>
   </note>
   <note>
    <pitch>
     <step>D</step>
     <octave>4</octave>
    </pitch>
    <duration>1</duration>
    <voice>1</voice>
    <type>eighth</type>
    <stem>up</stem>
    <notehead>normal</notehead>
    <staff>1</staff>
    <beam number="1">end</beam>
    <notations>
     <technical>
      <string>4</string>
      <fret>12</fret>
     </technical>
    </notations>
   </note>
   <note>
    <pitch>
     <step>D</step>
     <alter>1</alter>
     <octave>4</octave>
    </pitch>
    <duration>1</duration>
    <voice>1</voice>
    <type>eighth</type>
    <accidental>sharp</accidental>
    <stem>up</stem>
    <notehead>normal</notehead>
    <staff>1</staff>
    <beam number="1">begin</beam>
    <notations>
     <technical>
      <string>3</string>
      <fret>8</fret>
     </technical>
    </notations>
   </note>
   <note>
    <pitch>
     <step>E</step>
     <octave>4</octave>
    </pitch>
    <duration>1</duration>
    <voice>1</voice>
    <type>eighth</type>
    <stem>up</stem>
    <notehead>normal</notehead>
    <staff>1</staff>
    <beam number="1">continue</beam>
    <notations>
     <technical>
      <string>2</string>
      <fret>5</fret>
     </technical>
    </notations>
   </note>
   <note>
    <pitch>
     <step>F</step>
     <octave>4</octave>
    </pitch>
    <duration>1</duration>
    <voice>1</voice>
    <type>eighth</type>
    <accidental>natural</accidental>
    <stem>up</stem>
    <notehead>normal</notehead>
    <staff>1</staff>
    <beam number="1">end</beam>
    <notations>
     <technical>
      <string>2</string>
      <fret>6</fret>
     </technical>
    </notations>
   </note>
   <note>
    <pitch>
     <step>F</step>
     <alter>1</alter>
     <octave>4</octave>
    </pitch>
    <duration>1</duration>
    <voice>1</voice>
    <type>eighth</type>
    <accidental>sharp</accidental>
    <stem>up</stem>
    <notehead>normal</notehead>
    <staff>1</staff>
    <beam number="1">begin</beam>
    <notations>
     <technical>
      <string>2</string>
      <fret>7</fret>
     </technical>
    </notations>
   </note>
   <note>
    <pitch>
     <step>G</step>
     <octave>4</octave>
    </pitch>
    <duration>1</duration>
    <voice>1</voice>
    <type>eighth</type>
    <stem>up</stem>
    <notehead>normal</notehead>
    <staff>1</staff>
    <beam number="1">continue</beam>
    <notations>
     <technical>
      <string>2</string>
      <fret>8</fret>
     </technical>
    </notations>
   </note>
   <note>
    <pitch>
     <step>G</step>
     <alter>1</alter>
     <octave>4</octave>
    </pitch>
    <duration>1</duration>
    <voice>1</voice>
    <type>eighth</type>
    <accidental>sharp</accidental>
    <stem>up</stem>
    <notehead>normal</notehead>
    <staff>1</staff>
    <beam number="1">end</beam>
    <notations>
     <technical>
      <string>2</string>
      <fret>9</fret>
     </technical>
    </notations>
   </note>
   <note>
    <pitch>
     <step>A</step>
     <octave>4</octave>
    </pitch>
    <duration>1</duration>
    <voice>1</voice>
    <type>eighth</type>
    <stem>up</stem>
    <notehead>normal</notehead>
    <staff>1</staff>
    <beam number="1">begin</beam>
    <notations>
     <technical>
      <string>2</string>
      <fret>10</fret>
     </technical>
    </notations>
   </note>
   <note>
    <pitch>
     <step>A</step>
     <alter>1</alter>
     <octave>4</octave>
    </pitch>
    <duration>1</duration>
    <voice>1</voice>
    <type>eighth</type>
    <accidental>sharp</accidental>
    <stem>up</stem>
    <notehead>normal</notehead>
    <staff>1</staff>
    <beam number="1">continue</beam>
    <notations>
     <technical>
      <string>2</string>
      <fret>11</fret>
     </technical>
    </notations>
   </note>
   <note>
    <pitch>
     <step>B</step>
     <octave>4</octave>
    </pitch>
    <duration>1</duration>
    <voice>1</voice>
    <type>eighth</type>
    <stem>up</stem>
    <notehead>normal</notehead>
    <staff>1</staff>
    <beam number="1">end</beam>
    <notations>
     <technical>
      <string>2</string>
      <fret>12</fret>
     </technical>
    </notations>
   </note>
  </measure>
  <measure number="4">
   <attributes>
    <key>
     <fifths>3</fifths>
     <mode>major</mode>
    </key>
   </attributes>
   <note>
    <pitch>
     <step>C</step>
     <octave>4</octave>
    </pitch>
    <duration>1</duration>
    <voice>1</voice>
    <type>eighth</type>
    <accidental>natural</accidental>
    <stem>up</stem>
    <notehead>normal</notehead>
    <staff>1</staff>
    <beam number="1">begin</beam>
    <notations>
     <technical>
      <string>4</string>
      <fret>10</fret>
     </technical>
    </notations>
   </note>
   <note>
    <pitch>
     <step>C</step>
     <alter>1</alter>
     <octave>4</octave>
    </pitch>
    <duration>1</duration>
    <voice>1</voice>
    <type>eighth</type>
    <accidental>sharp</accidental>
    <stem>up</stem>
    <notehead>normal</notehead>
    <staff>1</staff>
    <beam number="1">continue</beam>
    <notations>
     <technical>
      <string>4</string>
      <fret>11</fret>
     </technical>
    </notations>
   </note>
   <note>
    <pitch>
     <step>D</step>
     <octave>4</octave>
    </pitch>
    <duration>1</duration>
    <voice>1</voice>
    <type>eighth</type>
    <stem>up</stem>
    <notehead>normal</notehead>
    <staff>1</staff>
    <beam number="1">end</beam>
    <notations>
     <technical>
      <string>4</string>
      <fret>12</fret>
     </technical>
    </notations>
   </note>
   <note>
    <pitch>
     <step>D</step>
     <alter>1</alter>
     <octave>4</octave>
    </pitch>
    <duration>1</duration>
    <voice>1</voice>
    <type>eighth</type>
    <accidental>sharp</accidental>
    <stem>up</stem>
    <notehead>normal</notehead>
    <staff>1</staff>
    <beam number="1">begin</beam>
    <notations>
     <technical>
      <string>3</string>
      <fret>8</fret>
     </technical>
    </notations>
   </note>
   <note>
    <pitch>
     <step>E</step>
     <octave>4</octave>
    </pitch>
    <duration>1</duration>
    <voice>1</voice>
    <type>eighth</type>
    <stem>up</stem>
    <notehead>normal</notehead>
    <staff>1</staff>
    <beam number="1">continue</beam>
    <notations>
     <technical>
      <string>2</string>
      <fret>5</fret>
     </technical>
    </notations>
   </note>
   <note>
    <pitch>
     <step>F</step>
     <octave>4</octave>
    </pitch>
    <duration>1</duration>
    <voice>1</voice>
    <type>eighth</type>
    <accidental>natural</accidental>
    <stem>up</stem>
    <notehead>normal</notehead>
    <staff>1</staff>
    <beam number="1">end</beam>
    <notations>
     <technical>
      <string>2</string>
      <fret>6</fret>
     </technical>
    </notations>
   </note>
   <note>
    <pitch>
     <step>F</step>
     <alter>1</alter>
     <octave>4</octave>
    </pitch>
    <duration>1</duration>
    <voice>1</voice>
    <type>eighth</type>
    <accidental>sharp</accidental>
    <stem>up</stem>
    <notehead>normal</notehead>
    <staff>1</staff>
    <beam number="1">begin</beam>
    <notations>
     <technical>
      <string>2</string>
      <fret>7</fret>
     </technical>
    </notations>
   </note>
   <note>
    <pitch>
     <step>G</step>
     <octave>4</octave>
    </pitch>
    <duration>1</duration>
    <voice>1</voice>
    <type>eighth</type>
    <accidental>natural</accidental>
    <stem>up</stem>
    <notehead>normal</notehead>
    <staff>1</staff>
    <beam number="1">continue</beam>
    <notations>
     <technical>
      <string>2</string>
      <fret>8</fret>
     </technical>
    </notations>
   </note>
   <note>
    <pitch>
     <step>G</step>
     <alter>1</alter>
     <octave>4</octave>
    </pitch>
    <duration>1</duration>
    <voice>1</voice>
    <type>eighth</type>
    <accidental>sharp</accidental>
    <stem>up</stem>
    <notehead>normal</notehead>
    <staff>1</staff>
    <beam number="1">end</beam>
    <notations>
     <technical>
      <string>2</string>
      <fret>9</fret>
     </technical>
    </notations>
   </note>
   <note>
    <pitch>
     <step>A</step>
     <octave>4</octave>
    </pitch>
    <duration>1</duration>
    <voice>1</voice>
    <type>eighth</type>
    <stem>up</stem>
    <notehead>normal</notehead>
    <staff>1</staff>
    <beam number="1">begin</beam>
    <notations>
     <technical>
      <string>2</string>
      <fret>10</fret>
     </technical>
    </notations>
   </note>
   <note>
    <pitch>
     <step>A</step>
     <alter>1</alter>
     <octave>4</octave>
    </pitch>
    <duration>1</duration>
    <voice>1</voice>
    <type>eighth</type>
    <accidental>sharp</accidental>
    <stem>up</stem>
    <notehead>normal</notehead>
    <staff>1</staff>
    <beam number="1">continue</beam>
    <notations>
     <technical>
      <string>2</string>
      <fret>11</fret>
     </technical>
    </notations>
   </note>
   <note>
    <pitch>
     <step>B</step>
     <octave>4</octave>
    </pitch>
    <duration>1</duration>
    <voice>1</voice>
    <type>eighth</type>
    <stem>up</stem>
    <notehead>normal</notehead>
    <staff>1</staff>
    <beam number="1">end</beam>
    <notations>
     <technical>
      <string>2</string>
      <fret>12</fret>
     </technical>
    </notations>
   </note>
  </measure>
  <measure number="5">
   <attributes>
    <key>
     <fifths>4</fifths>
     <mode>major</mode>
    </key>
   </attributes>
   <note>
    <pitch>
     <step>C</step>
     <octave>4</octave>
    </pitch>
    <duration>1</duration>
    <voice>1</voice>
    <type>eighth</type>
    <accidental>natural</accidental>
    <stem>up</stem>
    <notehead>normal</notehead>
    <staff>1</staff>
    <beam number="1">begin</beam>
    <notations>
     <technical>
      <string>4</string>
      <fret>10</fret>
     </technical>
    </notations>
   </note>
   <note>
    <pitch>
     <step>C</step>
     <alter>1</alter>
     <octave>4</octave>
    </pitch>
    <duration>1</duration>
    <voice>1</voice>
    <type>eighth</type>
    <accidental>sharp</accidental>
    <stem>up</stem>
    <notehead>normal</notehead>
    <staff>1</staff>
    <beam number="1">continue</beam>
    <notations>
     <technical>
      <string>4</string>
      <fret>11</fret>
     </technical>
    </notations>
   </note>
   <note>
    <pitch>
     <step>D</step>
     <octave>4</octave>
    </pitch>
    <duration>1</duration>
    <voice>1</voice>
    <type>eighth</type>
    <accidental>natural</accidental>
    <stem>up</stem>
    <notehead>normal</notehead>
    <staff>1</staff>
    <beam number="1">end</beam>
    <notations>
     <technical>
      <string>4</string>
      <fret>12</fret>
     </technical>
    </notations>
   </note>
   <note>
    <pitch>
     <step>D</step>
     <alter>1</alter>
     <octave>4</octave>
    </pitch>
    <duration>1</duration>
    <voice>1</voice>
    <type>eighth</type>
    <accidental>sharp</accidental>
    <stem>up</stem>
    <notehead>normal</notehead>
    <staff>1</staff>
    <beam number="1">begin</beam>
    <notations>
     <technical>
      <string>3</string>
      <fret>8</fret>
     </technical>
    </notations>
   </note>
   <note>
    <pitch>
     <step>E</step>
     <octave>4</octave>
    </pitch>
    <duration>1</duration>
    <voice>1</voice>
    <type>eighth</type>
    <stem>up</stem>
    <notehead>normal</notehead>
    <staff>1</staff>
    <beam number="1">continue</beam>
    <notations>
     <technical>
      <string>2</string>
      <fret>5</fret>
     </technical>
    </notations>
   </note>
   <note>
    <pitch>
     <step>F</step>
     <octave>4</octave>
    </pitch>
    <duration>1</duration>
    <voice>1</voice>
    <type>eighth</type>
    <accidental>natural</accidental>
    <stem>up</stem>
    <notehead>normal</notehead>
    <staff>1</staff>
    <beam number="1">end</beam>
    <notations>
     <technical>
      <string>2</string>
      <fret>6</fret>
     </technical>
    </notations>
   </note>
   <note>
    <pitch>
     <step>F</step>
     <alter>1</alter>
     <octave>4</octave>
    </pitch>
    <duration>1</duration>
    <voice>1</voice>
    <type>eighth</type>
    <accidental>sharp</accidental>
    <stem>up</stem>
    <notehead>normal</notehead>
    <staff>1</staff>
    <beam number="1">begin</beam>
    <notations>
     <technical>
      <string>2</string>
      <fret>7</fret>
     </technical>
    </notations>
   </note>
   <note>
    <pitch>
     <step>G</step>
     <octave>4</octave>
    </pitch>
    <duration>1</duration>
    <voice>1</voice>
    <type>eighth</type>
    <accidental>natural</accidental>
    <stem>up</stem>
    <notehead>normal</notehead>
    <staff>1</staff>
    <beam number="1">continue</beam>
    <notations>
     <technical>
      <string>2</string>
      <fret>8</fret>
     </technical>
    </notations>
   </note>
   <note>
    <pitch>
     <step>G</step>
     <alter>1</alter>
     <octave>4</octave>
    </pitch>
    <duration>1</duration>
    <voice>1</voice>
    <type>eighth</type>
    <accidental>sharp</accidental>
    <stem>up</stem>
    <notehead>normal</notehead>
    <staff>1</staff>
    <beam number="1">end</beam>
    <notations>
     <technical>
      <string>2</string>
      <fret>9</fret>
     </technical>
    </notations>
   </note>
   <note>
    <pitch>
     <step>A</step>
     <octave>4</octave>
    </pitch>
    <duration>1</duration>
    <voice>1</voice>
    <type>eighth</type>
    <stem>up</stem>
    <notehead>normal</notehead>
    <staff>1</staff>
    <beam number="1">begin</beam>
    <notations>
     <technical>
      <string>2</string>
      <fret>10</fret>
     </technical>
    </notations>
   </note>
   <note>
    <pitch>
     <step>A</step>
     <alter>1</alter>
     <octave>4</octave>
    </pitch>
    <duration>1</duration>
    <voice>1</voice>
    <type>eighth</type>
    <accidental>sharp</accidental>
    <stem>up</stem>
    <notehead>normal</notehead>
    <staff>1</staff>
    <beam number="1">continue</beam>
    <notations>
     <technical>
      <string>2</string>
      <fret>11</fret>
     </technical>
    </notations>
   </note>
   <note>
    <pitch>
     <step>B</step>
     <octave>4</octave>
    </pitch>
    <duration>1</duration>
    <voice>1</voice>
    <type>eighth</type>
    <stem>up</stem>
    <notehead>normal</notehead>
    <staff>1</staff>
    <beam number="1">end</beam>
    <notations>
     <technical>
      <string>2</string>
      <fret>12</fret>
     </technical>
    </notations>
   </note>
  </measure>
  <measure number="6">
   <attributes>
    <key>
     <fifths>5</fifths>
     <mode>major</mode>
    </key>
   </attributes>
   <note>
    <pitch>
     <step>C</step>
     <octave>4</octave>
    </pitch>
    <duration>1</duration>
    <voice>1</voice>
    <type>eighth</type>
    <accidental>natural</accidental>
    <stem>up</stem>
    <notehead>normal</notehead>
    <staff>1</staff>
    <beam number="1">begin</beam>
    <notations>
     <technical>
      <string>4</string>
      <fret>10</fret>
     </technical>
    </notations>
   </note>
   <note>
    <pitch>
     <step>C</step>
     <alter>1</alter>
     <octave>4</octave>
    </pitch>
    <duration>1</duration>
    <voice>1</voice>
    <type>eighth</type>
    <accidental>sharp</accidental>
    <stem>up</stem>
    <notehead>normal</notehead>
    <staff>1</staff>
    <beam number="1">continue</beam>
    <notations>
     <technical>
      <string>4</string>
      <fret>11</fret>
     </technical>
    </notations>
   </note>
   <note>
    <pitch>
     <step>D</step>
     <octave>4</octave>
    </pitch>
    <duration>1</duration>
    <voice>1</voice>
    <type>eighth</type>
    <accidental>natural</accidental>
    <stem>up</stem>
    <notehead>normal</notehead>
    <staff>1</staff>
    <beam number="1">end</beam>
    <notations>
     <technical>
      <string>4</string>
      <fret>12</fret>
     </technical>
    </notations>
   </note>
   <note>
    <pitch>
     <step>D</step>
     <alter>1</alter>
     <octave>4</octave>
    </pitch>
    <duration>1</duration>
    <voice>1</voice>
    <type>eighth</type>
    <accidental>sharp</accidental>
    <stem>up</stem>
    <notehead>normal</notehead>
    <staff>1</staff>
    <beam number="1">begin</beam>
    <notations>
     <technical>
      <string>3</string>
      <fret>8</fret>
     </technical>
    </notations>
   </note>
   <note>
    <pitch>
     <step>E</step>
     <octave>4</octave>
    </pitch>
    <duration>1</duration>
    <voice>1</voice>
    <type>eighth</type>
    <stem>up</stem>
    <notehead>normal</notehead>
    <staff>1</staff>
    <beam number="1">continue</beam>
    <notations>
     <technical>
      <string>2</string>
      <fret>5</fret>
     </technical>
    </notations>
   </note>
   <note>
    <pitch>
     <step>F</step>
     <octave>4</octave>
    </pitch>
    <duration>1</duration>
    <voice>1</voice>
    <type>eighth</type>
    <accidental>natural</accidental>
    <stem>up</stem>
    <notehead>normal</notehead>
    <staff>1</staff>
    <beam number="1">end</beam>
    <notations>
     <technical>
      <string>2</string>
      <fret>6</fret>
     </technical>
    </notations>
   </note>
   <note>
    <pitch>
     <step>F</step>
     <alter>1</alter>
     <octave>4</octave>
    </pitch>
    <duration>1</duration>
    <voice>1</voice>
    <type>eighth</type>
    <accidental>sharp</accidental>
    <stem>up</stem>
    <notehead>normal</notehead>
    <staff>1</staff>
    <beam number="1">begin</beam>
    <notations>
     <technical>
      <string>2</string>
      <fret>7</fret>
     </technical>
    </notations>
   </note>
   <note>
    <pitch>
     <step>G</step>
     <octave>4</octave>
    </pitch>
    <duration>1</duration>
    <voice>1</voice>
    <type>eighth</type>
    <accidental>natural</accidental>
    <stem>up</stem>
    <notehead>normal</notehead>
    <staff>1</staff>
    <beam number="1">continue</beam>
    <notations>
     <technical>
      <string>2</string>
      <fret>8</fret>
     </technical>
    </notations>
   </note>
   <note>
    <pitch>
     <step>G</step>
     <alter>1</alter>
     <octave>4</octave>
    </pitch>
    <duration>1</duration>
    <voice>1</voice>
    <type>eighth</type>
    <accidental>sharp</accidental>
    <stem>up</stem>
    <notehead>normal</notehead>
    <staff>1</staff>
    <beam number="1">end</beam>
    <notations>
     <technical>
      <string>2</string>
      <fret>9</fret>
     </technical>
    </notations>
   </note>
   <note>
    <pitch>
     <step>A</step>
     <octave>4</octave>
    </pitch>
    <duration>1</duration>
    <voice>1</voice>
    <type>eighth</type>
    <accidental>natural</accidental>
    <stem>up</stem>
    <notehead>normal</notehead>
    <staff>1</staff>
    <beam number="1">begin</beam>
    <notations>
     <technical>
      <string>2</string>
      <fret>10</fret>
     </technical>
    </notations>
   </note>
   <note>
    <pitch>
     <step>A</step>
     <alter>1</alter>
     <octave>4</octave>
    </pitch>
    <duration>1</duration>
    <voice>1</voice>
    <type>eighth</type>
    <accidental>sharp</accidental>
    <stem>up</stem>
    <notehead>normal</notehead>
    <staff>1</staff>
    <beam number="1">continue</beam>
    <notations>
     <technical>
      <string>2</string>
      <fret>11</fret>
     </technical>
    </notations>
   </note>
   <note>
    <pitch>
     <step>B</step>
     <octave>4</octave>
    </pitch>
    <duration>1</duration>
    <voice>1</voice>
    <type>eighth</type>
    <stem>up</stem>
    <notehead>normal</notehead>
    <staff>1</staff>
    <beam number="1">end</beam>
    <notations>
     <technical>
      <string>2</string>
      <fret>12</fret>
     </technical>
    </notations>
   </note>
  </measure>
  <measure number="7">
   <attributes>
    <key>
     <fifths>6</fifths>
     <mode>major</mode>
    </key>
   </attributes>
   <note>
    <pitch>
     <step>C</step>
     <octave>4</octave>
    </pitch>
    <duration>1</duration>
    <voice>1</voice>
    <type>eighth</type>
    <accidental>natural</accidental>
    <stem>up</stem>
    <notehead>normal</notehead>
    <staff>1</staff>
    <beam number="1">begin</beam>
    <notations>
     <technical>
      <string>4</string>
      <fret>10</fret>
     </technical>
    </notations>
   </note>
   <note>
    <pitch>
     <step>C</step>
     <alter>1</alter>
     <octave>4</octave>
    </pitch>
    <duration>1</duration>
    <voice>1</voice>
    <type>eighth</type>
    <accidental>sharp</accidental>
    <stem>up</stem>
    <notehead>normal</notehead>
    <staff>1</staff>
    <beam number="1">continue</beam>
    <notations>
     <technical>
      <string>4</string>
      <fret>11</fret>
     </technical>
    </notations>
   </note>
   <note>
    <pitch>
     <step>D</step>
     <octave>4</octave>
    </pitch>
    <duration>1</duration>
    <voice>1</voice>
    <type>eighth</type>
    <accidental>natural</accidental>
    <stem>up</stem>
    <notehead>normal</notehead>
    <staff>1</staff>
    <beam number="1">end</beam>
    <notations>
     <technical>
      <string>4</string>
      <fret>12</fret>
     </technical>
    </notations>
   </note>
   <note>
    <pitch>
     <step>D</step>
     <alter>1</alter>
     <octave>4</octave>
    </pitch>
    <duration>1</duration>
    <voice>1</voice>
    <type>eighth</type>
    <accidental>sharp</accidental>
    <stem>up</stem>
    <notehead>normal</notehead>
    <staff>1</staff>
    <beam number="1">begin</beam>
    <notations>
     <technical>
      <string>3</string>
      <fret>8</fret>
     </technical>
    </notations>
   </note>
   <note>
    <pitch>
     <step>E</step>
     <octave>4</octave>
    </pitch>
    <duration>1</duration>
    <voice>1</voice>
    <type>eighth</type>
    <accidental>natural</accidental>
    <stem>up</stem>
    <notehead>normal</notehead>
    <staff>1</staff>
    <beam number="1">continue</beam>
    <notations>
     <technical>
      <string>2</string>
      <fret>5</fret>
     </technical>
    </notations>
   </note>
   <note>
    <pitch>
     <step>E</step>
     <alter>1</alter>
     <octave>4</octave>
    </pitch>
    <duration>1</duration>
    <voice>1</voice>
    <type>eighth</type>
    <accidental>sharp</accidental>
    <stem>up</stem>
    <notehead>normal</notehead>
    <staff>1</staff>
    <beam number="1">end</beam>
    <notations>
     <technical>
      <string>2</string>
      <fret>6</fret>
     </technical>
    </notations>
   </note>
   <note>
    <pitch>
     <step>F</step>
     <alter>1</alter>
     <octave>4</octave>
    </pitch>
    <duration>1</duration>
    <voice>1</voice>
    <type>eighth</type>
    <stem>up</stem>
    <notehead>normal</notehead>
    <staff>1</staff>
    <beam number="1">begin</beam>
    <notations>
     <technical>
      <string>2</string>
      <fret>7</fret>
     </technical>
    </notations>
   </note>
   <note>
    <pitch>
     <step>G</step>
     <octave>4</octave>
    </pitch>
    <duration>1</duration>
    <voice>1</voice>
    <type>eighth</type>
    <accidental>natural</accidental>
    <stem>up</stem>
    <notehead>normal</notehead>
    <staff>1</staff>
    <beam number="1">continue</beam>
    <notations>
     <technical>
      <string>2</string>
      <fret>8</fret>
     </technical>
    </notations>
   </note>
   <note>
    <pitch>
     <step>G</step>
     <alter>1</alter>
     <octave>4</octave>
    </pitch>
    <duration>1</duration>
    <voice>1</voice>
    <type>eighth</type>
    <accidental>sharp</accidental>
    <stem>up</stem>
    <notehead>normal</notehead>
    <staff>1</staff>
    <beam number="1">end</beam>
    <notations>
     <technical>
      <string>2</string>
      <fret>9</fret>
     </technical>
    </notations>
   </note>
   <note>
    <pitch>
     <step>A</step>
     <octave>4</octave>
    </pitch>
    <duration>1</duration>
    <voice>1</voice>
    <type>eighth</type>
    <accidental>natural</accidental>
    <stem>up</stem>
    <notehead>normal</notehead>
    <staff>1</staff>
    <beam number="1">begin</beam>
    <notations>
     <technical>
      <string>2</string>
      <fret>10</fret>
     </technical>
    </notations>
   </note>
   <note>
    <pitch>
     <step>A</step>
     <alter>1</alter>
     <octave>4</octave>
    </pitch>
    <duration>1</duration>
    <voice>1</voice>
    <type>eighth</type>
    <accidental>sharp</accidental>
    <stem>up</stem>
    <notehead>normal</notehead>
    <staff>1</staff>
    <beam number="1">continue</beam>
    <notations>
     <technical>
      <string>2</string>
      <fret>11</fret>
     </technical>
    </notations>
   </note>
   <note>
    <pitch>
     <step>B</step>
     <octave>4</octave>
    </pitch>
    <duration>1</duration>
    <voice>1</voice>
    <type>eighth</type>
    <stem>up</stem>
    <notehead>normal</notehead>
    <staff>1</staff>
    <beam number="1">end</beam>
    <notations>
     <technical>
      <string>2</string>
      <fret>12</fret>
     </technical>
    </notations>
   </note>
  </measure>
  <measure number="8">
   <attributes>
    <key>
     <fifths>7</fifths>
     <mode>major</mode>
    </key>
   </attributes>
   <note>
    <pitch>
     <step>B</step>
     <alter>1</alter>
     <octave>3</octave>
    </pitch>
    <duration>1</duration>
    <voice>1</voice>
    <type>eighth</type>
    <stem>up</stem>
    <notehead>normal</notehead>
    <staff>1</staff>
    <beam number="1">begin</beam>
    <notations>
     <technical>
      <string>4</string>
      <fret>10</fret>
     </technical>
    </notations>
   </note>
   <note>
    <pitch>
     <step>C</step>
     <alter>1</alter>
     <octave>4</octave>
    </pitch>
    <duration>1</duration>
    <voice>1</voice>
    <type>eighth</type>
    <stem>up</stem>
    <notehead>normal</notehead>
    <staff>1</staff>
    <beam number="1">continue</beam>
    <notations>
     <technical>
      <string>4</string>
      <fret>11</fret>
     </technical>
    </notations>
   </note>
   <note>
    <pitch>
     <step>D</step>
     <octave>4</octave>
    </pitch>
    <duration>1</duration>
    <voice>1</voice>
    <type>eighth</type>
    <accidental>natural</accidental>
    <stem>up</stem>
    <notehead>normal</notehead>
    <staff>1</staff>
    <beam number="1">end</beam>
    <notations>
     <technical>
      <string>4</string>
      <fret>12</fret>
     </technical>
    </notations>
   </note>
   <note>
    <pitch>
     <step>D</step>
     <alter>1</alter>
     <octave>4</octave>
    </pitch>
    <duration>1</duration>
    <voice>1</voice>
    <type>eighth</type>
    <accidental>sharp</accidental>
    <stem>up</stem>
    <notehead>normal</notehead>
    <staff>1</staff>
    <beam number="1">begin</beam>
    <notations>
     <technical>
      <string>3</string>
      <fret>8</fret>
     </technical>
    </notations>
   </note>
   <note>
    <pitch>
     <step>E</step>
     <octave>4</octave>
    </pitch>
    <duration>1</duration>
    <voice>1</voice>
    <type>eighth</type>
    <accidental>natural</accidental>
    <stem>up</stem>
    <notehead>normal</notehead>
    <staff>1</staff>
    <beam number="1">continue</beam>
    <notations>
     <technical>
      <string>2</string>
      <fret>5</fret>
     </technical>
    </notations>
   </note>
   <note>
    <pitch>
     <step>E</step>
     <alter>1</alter>
     <octave>4</octave>
    </pitch>
    <duration>1</duration>
    <voice>1</voice>
    <type>eighth</type>
    <accidental>sharp</accidental>
    <stem>up</stem>
    <notehead>normal</notehead>
    <staff>1</staff>
    <beam number="1">end</beam>
    <notations>
     <technical>
      <string>2</string>
      <fret>6</fret>
     </technical>
    </notations>
   </note>
   <note>
    <pitch>
     <step>F</step>
     <alter>1</alter>
     <octave>4</octave>
    </pitch>
    <duration>1</duration>
    <voice>1</voice>
    <type>eighth</type>
    <stem>up</stem>
    <notehead>normal</notehead>
    <staff>1</staff>
    <beam number="1">begin</beam>
    <notations>
     <technical>
      <string>2</string>
      <fret>7</fret>
     </technical>
    </notations>
   </note>
   <note>
    <pitch>
     <step>G</step>
     <octave>4</octave>
    </pitch>
    <duration>1</duration>
    <voice>1</voice>
    <type>eighth</type>
    <accidental>natural</accidental>
    <stem>up</stem>
    <notehead>normal</notehead>
    <staff>1</staff>
    <beam number="1">continue</beam>
    <notations>
     <technical>
      <string>2</string>
      <fret>8</fret>
     </technical>
    </notations>
   </note>
   <note>
    <pitch>
     <step>G</step>
     <alter>1</alter>
     <octave>4</octave>
    </pitch>
    <duration>1</duration>
    <voice>1</voice>
    <type>eighth</type>
    <accidental>sharp</accidental>
    <stem>up</stem>
    <notehead>normal</notehead>
    <staff>1</staff>
    <beam number="1">end</beam>
    <notations>
     <technical>
      <string>2</string>
      <fret>9</fret>
     </technical>
    </notations>
   </note>
   <note>
    <pitch>
     <step>A</step>
     <octave>4</octave>
    </pitch>
    <duration>1</duration>
    <voice>1</voice>
    <type>eighth</type>
    <accidental>natural</accidental>
    <stem>up</stem>
    <notehead>normal</notehead>
    <staff>1</staff>
    <beam number="1">begin</beam>
    <notations>
     <technical>
      <string>2</string>
      <fret>10</fret>
     </technical>
    </notations>
   </note>
   <note>
    <pitch>
     <step>A</step>
     <alter>1</alter>
     <octave>4</octave>
    </pitch>
    <duration>1</duration>
    <voice>1</voice>
    <type>eighth</type>
    <accidental>sharp</accidental>
    <stem>up</stem>
    <notehead>normal</notehead>
    <staff>1</staff>
    <beam number="1">continue</beam>
    <notations>
     <technical>
      <string>2</string>
      <fret>11</fret>
     </technical>
    </notations>
   </note>
   <note>
    <pitch>
     <step>B</step>
     <octave>4</octave>
    </pitch>
    <duration>1</duration>
    <voice>1</voice>
    <type>eighth</type>
    <accidental>natural</accidental>
    <stem>up</stem>
    <notehead>normal</notehead>
    <staff>1</staff>
    <beam number="1">end</beam>
    <notations>
     <technical>
      <string>2</string>
      <fret>12</fret>
     </technical>
    </notations>
   </note>
  </measure>
  <measure number="9">
   <attributes>
    <key>
     <fifths>-1</fifths>
     <mode>major</mode>
    </key>
   </attributes>
   <note>
    <pitch>
     <step>C</step>
     <octave>4</octave>
    </pitch>
    <duration>1</duration>
    <voice>1</voice>
    <type>eighth</type>
    <stem>up</stem>
    <notehead>normal</notehead>
    <staff>1</staff>
    <beam number="1">begin</beam>
    <notations>
     <technical>
      <string>4</string>
      <fret>10</fret>
     </technical>
    </notations>
   </note>
   <note>
    <pitch>
     <step>D</step>
     <alter>-1</alter>
     <octave>4</octave>
    </pitch>
    <duration>1</duration>
    <voice>1</voice>
    <type>eighth</type>
    <accidental>flat</accidental>
    <stem>up</stem>
    <notehead>normal</notehead>
    <staff>1</staff>
    <beam number="1">continue</beam>
    <notations>
     <technical>
      <string>4</string>
      <fret>11</fret>
     </technical>
    </notations>
   </note>
   <note>
    <pitch>
     <step>D</step>
     <octave>4</octave>
    </pitch>
    <duration>1</duration>
    <voice>1</voice>
    <type>eighth</type>
    <accidental>natural</accidental>
    <stem>up</stem>
    <notehead>normal</notehead>
    <staff>1</staff>
    <beam number="1">end</beam>
    <notations>
     <technical>
      <string>4</string>
      <fret>12</fret>
     </technical>
    </notations>
   </note>
   <note>
    <pitch>
     <step>E</step>
     <alter>-1</alter>
     <octave>4</octave>
    </pitch>
    <duration>1</duration>
    <voice>1</voice>
    <type>eighth</type>
    <accidental>flat</accidental>
    <stem>up</stem>
    <notehead>normal</notehead>
    <staff>1</staff>
    <beam number="1">begin</beam>
    <notations>
     <technical>
      <string>3</string>
      <fret>8</fret>
     </technical>
    </notations>
   </note>
   <note>
    <pitch>
     <step>E</step>
     <octave>4</octave>
    </pitch>
    <duration>1</duration>
    <voice>1</voice>
    <type>eighth</type>
    <accidental>natural</accidental>
    <stem>up</stem>
    <notehead>normal</notehead>
    <staff>1</staff>
    <beam number="1">continue</beam>
    <notations>
     <technical>
      <string>2</string>
      <fret>5</fret>
     </technical>
    </notations>
   </note>
   <note>
    <pitch>
     <step>F</step>
     <octave>4</octave>
    </pitch>
    <duration>1</duration>
    <voice>1</voice>
    <type>eighth</type>
    <accidental>natural</accidental>
    <stem>up</stem>
    <notehead>normal</notehead>
    <staff>1</staff>
    <beam number="1">end</beam>
    <notations>
     <technical>
      <string>2</string>
      <fret>6</fret>
     </technical>
    </notations>
   </note>
   <note>
    <pitch>
     <step>G</step>
     <alter>-1</alter>
     <octave>4</octave>
    </pitch>
    <duration>1</duration>
    <voice>1</voice>
    <type>eighth</type>
    <accidental>flat</accidental>
    <stem>up</stem>
    <notehead>normal</notehead>
    <staff>1</staff>
    <beam number="1">begin</beam>
    <notations>
     <technical>
      <string>2</string>
      <fret>7</fret>
     </technical>
    </notations>
   </note>
   <note>
    <pitch>
     <step>G</step>
     <octave>4</octave>
    </pitch>
    <duration>1</duration>
    <voice>1</voice>
    <type>eighth</type>
    <accidental>natural</accidental>
    <stem>up</stem>
    <notehead>normal</notehead>
    <staff>1</staff>
    <beam number="1">continue</beam>
    <notations>
     <technical>
      <string>2</string>
      <fret>8</fret>
     </technical>
    </notations>
   </note>
   <note>
    <pitch>
     <step>A</step>
     <alter>-1</alter>
     <octave>4</octave>
    </pitch>
    <duration>1</duration>
    <voice>1</voice>
    <type>eighth</type>
    <accidental>flat</accidental>
    <stem>up</stem>
    <notehead>normal</notehead>
    <staff>1</staff>
    <beam number="1">end</beam>
    <notations>
     <technical>
      <string>2</string>
      <fret>9</fret>
     </technical>
    </notations>
   </note>
   <note>
    <pitch>
     <step>A</step>
     <octave>4</octave>
    </pitch>
    <duration>1</duration>
    <voice>1</voice>
    <type>eighth</type>
    <accidental>natural</accidental>
    <stem>up</stem>
    <notehead>normal</notehead>
    <staff>1</staff>
    <beam number="1">begin</beam>
    <notations>
     <technical>
      <string>2</string>
      <fret>10</fret>
     </technical>
    </notations>
   </note>
   <note>
    <pitch>
     <step>B</step>
     <alter>-1</alter>
     <octave>4</octave>
    </pitch>
    <duration>1</duration>
    <voice>1</voice>
    <type>eighth</type>
    <accidental>flat</accidental>
    <stem>up</stem>
    <notehead>normal</notehead>
    <staff>1</staff>
    <beam number="1">continue</beam>
    <notations>
     <technical>
      <string>2</string>
      <fret>11</fret>
     </technical>
    </notations>
   </note>
   <note>
    <pitch>
     <step>B</step>
     <octave>4</octave>
    </pitch>
    <duration>1</duration>
    <voice>1</voice>
    <type>eighth</type>
    <accidental>natural</accidental>
    <stem>up</stem>
    <notehead>normal</notehead>
    <staff>1</staff>
    <beam number="1">end</beam>
    <notations>
     <technical>
      <string>2</string>
      <fret>12</fret>
     </technical>
    </notations>
   </note>
  </measure>
  <measure number="10">
   <attributes>
    <key>
     <fifths>-2</fifths>
     <mode>major</mode>
    </key>
   </attributes>
   <note>
    <pitch>
     <step>C</step>
     <octave>4</octave>
    </pitch>
    <duration>1</duration>
    <voice>1</voice>
    <type>eighth</type>
    <accidental>natural</accidental>
    <stem>up</stem>
    <notehead>normal</notehead>
    <staff>1</staff>
    <beam number="1">begin</beam>
    <notations>
     <technical>
      <string>4</string>
      <fret>10</fret>
     </technical>
    </notations>
   </note>
   <note>
    <pitch>
     <step>D</step>
     <alter>-1</alter>
     <octave>4</octave>
    </pitch>
    <duration>1</duration>
    <voice>1</voice>
    <type>eighth</type>
    <accidental>flat</accidental>
    <stem>up</stem>
    <notehead>normal</notehead>
    <staff>1</staff>
    <beam number="1">continue</beam>
    <notations>
     <technical>
      <string>4</string>
      <fret>11</fret>
     </technical>
    </notations>
   </note>
   <note>
    <pitch>
     <step>D</step>
     <octave>4</octave>
    </pitch>
    <duration>1</duration>
    <voice>1</voice>
    <type>eighth</type>
    <accidental>natural</accidental>
    <stem>up</stem>
    <notehead>normal</notehead>
    <staff>1</staff>
    <beam number="1">end</beam>
    <notations>
     <technical>
      <string>4</string>
      <fret>12</fret>
     </technical>
    </notations>
   </note>
   <note>
    <pitch>
     <step>E</step>
     <alter>-1</alter>
     <octave>4</octave>
    </pitch>
    <duration>1</duration>
    <voice>1</voice>
    <type>eighth</type>
    <accidental>flat</accidental>
    <stem>up</stem>
    <notehead>normal</notehead>
    <staff>1</staff>
    <beam number="1">begin</beam>
    <notations>
     <technical>
      <string>3</string>
      <fret>8</fret>
     </technical>
    </notations>
   </note>
   <note>
    <pitch>
     <step>E</step>
     <octave>4</octave>
    </pitch>
    <duration>1</duration>
    <voice>1</voice>
    <type>eighth</type>
    <accidental>natural</accidental>
    <stem>up</stem>
    <notehead>normal</notehead>
    <staff>1</staff>
    <beam number="1">continue</beam>
    <notations>
     <technical>
      <string>2</string>
      <fret>5</fret>
     </technical>
    </notations>
   </note>
   <note>
    <pitch>
     <step>F</step>
     <octave>4</octave>
    </pitch>
    <duration>1</duration>
    <voice>1</voice>
    <type>eighth</type>
    <accidental>natural</accidental>
    <stem>up</stem>
    <notehead>normal</notehead>
    <staff>1</staff>
    <beam number="1">end</beam>
    <notations>
     <technical>
      <string>2</string>
      <fret>6</fret>
     </technical>
    </notations>
   </note>
   <note>
    <pitch>
     <step>G</step>
     <alter>-1</alter>
     <octave>4</octave>
    </pitch>
    <duration>1</duration>
    <voice>1</voice>
    <type>eighth</type>
    <accidental>flat</accidental>
    <stem>up</stem>
    <notehead>normal</notehead>
    <staff>1</staff>
    <beam number="1">begin</beam>
    <notations>
     <technical>
      <string>2</string>
      <fret>7</fret>
     </technical>
    </notations>
   </note>
   <note>
    <pitch>
     <step>G</step>
     <octave>4</octave>
    </pitch>
    <duration>1</duration>
    <voice>1</voice>
    <type>eighth</type>
    <accidental>natural</accidental>
    <stem>up</stem>
    <notehead>normal</notehead>
    <staff>1</staff>
    <beam number="1">continue</beam>
    <notations>
     <technical>
      <string>2</string>
      <fret>8</fret>
     </technical>
    </notations>
   </note>
   <note>
    <pitch>
     <step>A</step>
     <alter>-1</alter>
     <octave>4</octave>
    </pitch>
    <duration>1</duration>
    <voice>1</voice>
    <type>eighth</type>
    <accidental>flat</accidental>
    <stem>up</stem>
    <notehead>normal</notehead>
    <staff>1</staff>
    <beam number="1">end</beam>
    <notations>
     <technical>
      <string>2</string>
      <fret>9</fret>
     </technical>
    </notations>
   </note>
   <note>
    <pitch>
     <step>A</step>
     <octave>4</octave>
    </pitch>
    <duration>1</duration>
    <voice>1</voice>
    <type>eighth</type>
    <accidental>natural</accidental>
    <stem>up</stem>
    <notehead>normal</notehead>
    <staff>1</staff>
    <beam number="1">begin</beam>
    <notations>
     <technical>
      <string>2</string>
      <fret>10</fret>
     </technical>
    </notations>
   </note>
   <note>
    <pitch>
     <step>B</step>
     <alter>-1</alter>
     <octave>4</octave>
    </pitch>
    <duration>1</duration>
    <voice>1</voice>
    <type>eighth</type>
    <accidental>flat</accidental>
    <stem>up</stem>
    <notehead>normal</notehead>
    <staff>1</staff>
    <beam number="1">continue</beam>
    <notations>
     <technical>
      <string>2</string>
      <fret>11</fret>
     </technical>
    </notations>
   </note>
   <note>
    <pitch>
     <step>B</step>
     <octave>4</octave>
    </pitch>
    <duration>1</duration>
    <voice>1</voice>
    <type>eighth</type>
    <accidental>natural</accidental>
    <stem>up</stem>
    <notehead>normal</notehead>
    <staff>1</staff>
    <beam number="1">end</beam>
    <notations>
     <technical>
      <string>2</string>
      <fret>12</fret>
     </technical>
    </notations>
   </note>
  </measure>
  <measure number="11">
   <attributes>
    <key>
     <fifths>-3</fifths>
     <mode>major</mode>
    </key>
   </attributes>
   <note>
    <pitch>
     <step>C</step>
     <octave>4</octave>
    </pitch>
    <duration>1</duration>
    <voice>1</voice>
    <type>eighth</type>
    <accidental>natural</accidental>
    <stem>up</stem>
    <notehead>normal</notehead>
    <staff>1</staff>
    <beam number="1">begin</beam>
    <notations>
     <technical>
      <string>4</string>
      <fret>10</fret>
     </technical>
    </notations>
   </note>
   <note>
    <pitch>
     <step>D</step>
     <alter>-1</alter>
     <octave>4</octave>
    </pitch>
    <duration>1</duration>
    <voice>1</voice>
    <type>eighth</type>
    <accidental>flat</accidental>
    <stem>up</stem>
    <notehead>normal</notehead>
    <staff>1</staff>
    <beam number="1">continue</beam>
    <notations>
     <technical>
      <string>4</string>
      <fret>11</fret>
     </technical>
    </notations>
   </note>
   <note>
    <pitch>
     <step>D</step>
     <octave>4</octave>
    </pitch>
    <duration>1</duration>
    <voice>1</voice>
    <type>eighth</type>
    <accidental>natural</accidental>
    <stem>up</stem>
    <notehead>normal</notehead>
    <staff>1</staff>
    <beam number="1">end</beam>
    <notations>
     <technical>
      <string>4</string>
      <fret>12</fret>
     </technical>
    </notations>
   </note>
   <note>
    <pitch>
     <step>E</step>
     <alter>-1</alter>
     <octave>4</octave>
    </pitch>
    <duration>1</duration>
    <voice>1</voice>
    <type>eighth</type>
    <accidental>flat</accidental>
    <stem>up</stem>
    <notehead>normal</notehead>
    <staff>1</staff>
    <beam number="1">begin</beam>
    <notations>
     <technical>
      <string>3</string>
      <fret>8</fret>
     </technical>
    </notations>
   </note>
   <note>
    <pitch>
     <step>E</step>
     <octave>4</octave>
    </pitch>
    <duration>1</duration>
    <voice>1</voice>
    <type>eighth</type>
    <accidental>natural</accidental>
    <stem>up</stem>
    <notehead>normal</notehead>
    <staff>1</staff>
    <beam number="1">continue</beam>
    <notations>
     <technical>
      <string>2</string>
      <fret>5</fret>
     </technical>
    </notations>
   </note>
   <note>
    <pitch>
     <step>F</step>
     <octave>4</octave>
    </pitch>
    <duration>1</duration>
    <voice>1</voice>
    <type>eighth</type>
    <accidental>natural</accidental>
    <stem>up</stem>
    <notehead>normal</notehead>
    <staff>1</staff>
    <beam number="1">end</beam>
    <notations>
     <technical>
      <string>2</string>
      <fret>6</fret>
     </technical>
    </notations>
   </note>
   <note>
    <pitch>
     <step>G</step>
     <alter>-1</alter>
     <octave>4</octave>
    </pitch>
    <duration>1</duration>
    <voice>1</voice>
    <type>eighth</type>
    <stem>up</stem>
    <notehead>normal</notehead>
    <staff>1</staff>
    <beam number="1">begin</beam>
    <notations>
     <technical>
      <string>2</string>
      <fret>7</fret>
     </technical>
    </notations>
   </note>
   <note>
    <pitch>
     <step>G</step>
     <octave>4</octave>
    </pitch>
    <duration>1</duration>
    <voice>1</voice>
    <type>eighth</type>
    <accidental>natural</accidental>
    <stem>up</stem>
    <notehead>normal</notehead>
    <staff>1</staff>
    <beam number="1">continue</beam>
    <notations>
     <technical>
      <string>2</string>
      <fret>8</fret>
     </technical>
    </notations>
   </note>
   <note>
    <pitch>
     <step>A</step>
     <alter>-1</alter>
     <octave>4</octave>
    </pitch>
    <duration>1</duration>
    <voice>1</voice>
    <type>eighth</type>
    <accidental>flat</accidental>
    <stem>up</stem>
    <notehead>normal</notehead>
    <staff>1</staff>
    <beam number="1">end</beam>
    <notations>
     <technical>
      <string>2</string>
      <fret>9</fret>
     </technical>
    </notations>
   </note>
   <note>
    <pitch>
     <step>A</step>
     <octave>4</octave>
    </pitch>
    <duration>1</duration>
    <voice>1</voice>
    <type>eighth</type>
    <accidental>natural</accidental>
    <stem>up</stem>
    <notehead>normal</notehead>
    <staff>1</staff>
    <beam number="1">begin</beam>
    <notations>
     <technical>
      <string>2</string>
      <fret>10</fret>
     </technical>
    </notations>
   </note>
   <note>
    <pitch>
     <step>B</step>
     <alter>-1</alter>
     <octave>4</octave>
    </pitch>
    <duration>1</duration>
    <voice>1</voice>
    <type>eighth</type>
    <accidental>flat</accidental>
    <stem>up</stem>
    <notehead>normal</notehead>
    <staff>1</staff>
    <beam number="1">continue</beam>
    <notations>
     <technical>
      <string>2</string>
      <fret>11</fret>
     </technical>
    </notations>
   </note>
   <note>
    <pitch>
     <step>B</step>
     <octave>4</octave>
    </pitch>
    <duration>1</duration>
    <voice>1</voice>
    <type>eighth</type>
    <accidental>natural</accidental>
    <stem>up</stem>
    <notehead>normal</notehead>
    <staff>1</staff>
    <beam number="1">end</beam>
    <notations>
     <technical>
      <string>2</string>
      <fret>12</fret>
     </technical>
    </notations>
   </note>
  </measure>
  <measure number="12">
   <attributes>
    <key>
     <fifths>-4</fifths>
     <mode>major</mode>
    </key>
   </attributes>
   <note>
    <pitch>
     <step>C</step>
     <octave>4</octave>
    </pitch>
    <duration>1</duration>
    <voice>1</voice>
    <type>eighth</type>
    <accidental>natural</accidental>
    <stem>up</stem>
    <notehead>normal</notehead>
    <staff>1</staff>
    <beam number="1">begin</beam>
    <notations>
     <technical>
      <string>4</string>
      <fret>10</fret>
     </technical>
    </notations>
   </note>
   <note>
    <pitch>
     <step>D</step>
     <alter>-1</alter>
     <octave>4</octave>
    </pitch>
    <duration>1</duration>
    <voice>1</voice>
    <type>eighth</type>
    <stem>up</stem>
    <notehead>normal</notehead>
    <staff>1</staff>
    <beam number="1">continue</beam>
    <notations>
     <technical>
      <string>4</string>
      <fret>11</fret>
     </technical>
    </notations>
   </note>
   <note>
    <pitch>
     <step>D</step>
     <octave>4</octave>
    </pitch>
    <duration>1</duration>
    <voice>1</voice>
    <type>eighth</type>
    <accidental>natural</accidental>
    <stem>up</stem>
    <notehead>normal</notehead>
    <staff>1</staff>
    <beam number="1">end</beam>
    <notations>
     <technical>
      <string>4</string>
      <fret>12</fret>
     </technical>
    </notations>
   </note>
   <note>
    <pitch>
     <step>E</step>
     <alter>-1</alter>
     <octave>4</octave>
    </pitch>
    <duration>1</duration>
    <voice>1</voice>
    <type>eighth</type>
    <accidental>flat</accidental>
    <stem>up</stem>
    <notehead>normal</notehead>
    <staff>1</staff>
    <beam number="1">begin</beam>
    <notations>
     <technical>
      <string>3</string>
      <fret>8</fret>
     </technical>
    </notations>
   </note>
   <note>
    <pitch>
     <step>E</step>
     <octave>4</octave>
    </pitch>
    <duration>1</duration>
    <voice>1</voice>
    <type>eighth</type>
    <accidental>natural</accidental>
    <stem>up</stem>
    <notehead>normal</notehead>
    <staff>1</staff>
    <beam number="1">continue</beam>
    <notations>
     <technical>
      <string>2</string>
      <fret>5</fret>
     </technical>
    </notations>
   </note>
   <note>
    <pitch>
     <step>F</step>
     <octave>4</octave>
    </pitch>
    <duration>1</duration>
    <voice>1</voice>
    <type>eighth</type>
    <accidental>natural</accidental>
    <stem>up</stem>
    <notehead>normal</notehead>
    <staff>1</staff>
    <beam number="1">end</beam>
    <notations>
     <technical>
      <string>2</string>
      <fret>6</fret>
     </technical>
    </notations>
   </note>
   <note>
    <pitch>
     <step>G</step>
     <alter>-1</alter>
     <octave>4</octave>
    </pitch>
    <duration>1</duration>
    <voice>1</voice>
    <type>eighth</type>
    <stem>up</stem>
    <notehead>normal</notehead>
    <staff>1</staff>
    <beam number="1">begin</beam>
    <notations>
     <technical>
      <string>2</string>
      <fret>7</fret>
     </technical>
    </notations>
   </note>
   <note>
    <pitch>
     <step>G</step>
     <octave>4</octave>
    </pitch>
    <duration>1</duration>
    <voice>1</voice>
    <type>eighth</type>
    <accidental>natural</accidental>
    <stem>up</stem>
    <notehead>normal</notehead>
    <staff>1</staff>
    <beam number="1">continue</beam>
    <notations>
     <technical>
      <string>2</string>
      <fret>8</fret>
     </technical>
    </notations>
   </note>
   <note>
    <pitch>
     <step>A</step>
     <alter>-1</alter>
     <octave>4</octave>
    </pitch>
    <duration>1</duration>
    <voice>1</voice>
    <type>eighth</type>
    <accidental>flat</accidental>
    <stem>up</stem>
    <notehead>normal</notehead>
    <staff>1</staff>
    <beam number="1">end</beam>
    <notations>
     <technical>
      <string>2</string>
      <fret>9</fret>
     </technical>
    </notations>
   </note>
   <note>
    <pitch>
     <step>A</step>
     <octave>4</octave>
    </pitch>
    <duration>1</duration>
    <voice>1</voice>
    <type>eighth</type>
    <accidental>natural</accidental>
    <stem>up</stem>
    <notehead>normal</notehead>
    <staff>1</staff>
    <beam number="1">begin</beam>
    <notations>
     <technical>
      <string>2</string>
      <fret>10</fret>
     </technical>
    </notations>
   </note>
   <note>
    <pitch>
     <step>B</step>
     <alter>-1</alter>
     <octave>4</octave>
    </pitch>
    <duration>1</duration>
    <voice>1</voice>
    <type>eighth</type>
    <accidental>flat</accidental>
    <stem>up</stem>
    <notehead>normal</notehead>
    <staff>1</staff>
    <beam number="1">continue</beam>
    <notations>
     <technical>
      <string>2</string>
      <fret>11</fret>
     </technical>
    </notations>
   </note>
   <note>
    <pitch>
     <step>B</step>
     <octave>4</octave>
    </pitch>
    <duration>1</duration>
    <voice>1</voice>
    <type>eighth</type>
    <accidental>natural</accidental>
    <stem>up</stem>
    <notehead>normal</notehead>
    <staff>1</staff>
    <beam number="1">end</beam>
    <notations>
     <technical>
      <string>2</string>
      <fret>12</fret>
     </technical>
    </notations>
   </note>
  </measure>
  <measure number="13">
   <attributes>
    <key>
     <fifths>-5</fifths>
     <mode>major</mode>
    </key>
   </attributes>
   <note>
    <pitch>
     <step>C</step>
     <octave>4</octave>
    </pitch>
    <duration>1</duration>
    <voice>1</voice>
    <type>eighth</type>
    <accidental>natural</accidental>
    <stem>up</stem>
    <notehead>normal</notehead>
    <staff>1</staff>
    <beam number="1">begin</beam>
    <notations>
     <technical>
      <string>4</string>
      <fret>10</fret>
     </technical>
    </notations>
   </note>
   <note>
    <pitch>
     <step>D</step>
     <alter>-1</alter>
     <octave>4</octave>
    </pitch>
    <duration>1</duration>
    <voice>1</voice>
    <type>eighth</type>
    <stem>up</stem>
    <notehead>normal</notehead>
    <staff>1</staff>
    <beam number="1">continue</beam>
    <notations>
     <technical>
      <string>4</string>
      <fret>11</fret>
     </technical>
    </notations>
   </note>
   <note>
    <pitch>
     <step>D</step>
     <octave>4</octave>
    </pitch>
    <duration>1</duration>
    <voice>1</voice>
    <type>eighth</type>
    <accidental>natural</accidental>
    <stem>up</stem>
    <notehead>normal</notehead>
    <staff>1</staff>
    <beam number="1">end</beam>
    <notations>
     <technical>
      <string>4</string>
      <fret>12</fret>
     </technical>
    </notations>
   </note>
   <note>
    <pitch>
     <step>E</step>
     <alter>-1</alter>
     <octave>4</octave>
    </pitch>
    <duration>1</duration>
    <voice>1</voice>
    <type>eighth</type>
    <accidental>flat</accidental>
    <stem>up</stem>
    <notehead>normal</notehead>
    <staff>1</staff>
    <beam number="1">begin</beam>
    <notations>
     <technical>
      <string>3</string>
      <fret>8</fret>
     </technical>
    </notations>
   </note>
   <note>
    <pitch>
     <step>E</step>
     <octave>4</octave>
    </pitch>
    <duration>1</duration>
    <voice>1</voice>
    <type>eighth</type>
    <accidental>natural</accidental>
    <stem>up</stem>
    <notehead>normal</notehead>
    <staff>1</staff>
    <beam number="1">continue</beam>
    <notations>
     <technical>
      <string>2</string>
      <fret>5</fret>
     </technical>
    </notations>
   </note>
   <note>
    <pitch>
     <step>F</step>
     <octave>4</octave>
    </pitch>
    <duration>1</duration>
    <voice>1</voice>
    <type>eighth</type>
    <accidental>natural</accidental>
    <stem>up</stem>
    <notehead>normal</notehead>
    <staff>1</staff>
    <beam number="1">end</beam>
    <notations>
     <technical>
      <string>2</string>
      <fret>6</fret>
     </technical>
    </notations>
   </note>
   <note>
    <pitch>
     <step>G</step>
     <alter>-1</alter>
     <octave>4</octave>
    </pitch>
    <duration>1</duration>
    <voice>1</voice>
    <type>eighth</type>
    <stem>up</stem>
    <notehead>normal</notehead>
    <staff>1</staff>
    <beam number="1">begin</beam>
    <notations>
     <technical>
      <string>2</string>
      <fret>7</fret>
     </technical>
    </notations>
   </note>
   <note>
    <pitch>
     <step>G</step>
     <octave>4</octave>
    </pitch>
    <duration>1</duration>
    <voice>1</voice>
    <type>eighth</type>
    <accidental>natural</accidental>
    <stem>up</stem>
    <notehead>normal</notehead>
    <staff>1</staff>
    <beam number="1">continue</beam>
    <notations>
     <technical>
      <string>2</string>
      <fret>8</fret>
     </technical>
    </notations>
   </note>
   <note>
    <pitch>
     <step>A</step>
     <alter>-1</alter>
     <octave>4</octave>
    </pitch>
    <duration>1</duration>
    <voice>1</voice>
    <type>eighth</type>
    <stem>up</stem>
    <notehead>normal</notehead>
    <staff>1</staff>
    <beam number="1">end</beam>
    <notations>
     <technical>
      <string>2</string>
      <fret>9</fret>
     </technical>
    </notations>
   </note>
   <note>
    <pitch>
     <step>A</step>
     <octave>4</octave>
    </pitch>
    <duration>1</duration>
    <voice>1</voice>
    <type>eighth</type>
    <accidental>natural</accidental>
    <stem>up</stem>
    <notehead>normal</notehead>
    <staff>1</staff>
    <beam number="1">begin</beam>
    <notations>
     <technical>
      <string>2</string>
      <fret>10</fret>
     </technical>
    </notations>
   </note>
   <note>
    <pitch>
     <step>B</step>
     <alter>-1</alter>
     <octave>4</octave>
    </pitch>
    <duration>1</duration>
    <voice>1</voice>
    <type>eighth</type>
    <accidental>flat</accidental>
    <stem>up</stem>
    <notehead>normal</notehead>
    <staff>1</staff>
    <beam number="1">continue</beam>
    <notations>
     <technical>
      <string>2</string>
      <fret>11</fret>
     </technical>
    </notations>
   </note>
   <note>
    <pitch>
     <step>B</step>
     <octave>4</octave>
    </pitch>
    <duration>1</duration>
    <voice>1</voice>
    <type>eighth</type>
    <accidental>natural</accidental>
    <stem>up</stem>
    <notehead>normal</notehead>
    <staff>1</staff>
    <beam number="1">end</beam>
    <notations>
     <technical>
      <string>2</string>
      <fret>12</fret>
     </technical>
    </notations>
   </note>
  </measure>
  <measure number="14">
   <attributes>
    <key>
     <fifths>-6</fifths>
     <mode>major</mode>
    </key>
   </attributes>
   <note>
    <pitch>
     <step>C</step>
     <octave>4</octave>
    </pitch>
    <duration>1</duration>
    <voice>1</voice>
    <type>eighth</type>
    <accidental>natural</accidental>
    <stem>up</stem>
    <notehead>normal</notehead>
    <staff>1</staff>
    <beam number="1">begin</beam>
    <notations>
     <technical>
      <string>4</string>
      <fret>10</fret>
     </technical>
    </notations>
   </note>
   <note>
    <pitch>
     <step>D</step>
     <alter>-1</alter>
     <octave>4</octave>
    </pitch>
    <duration>1</duration>
    <voice>1</voice>
    <type>eighth</type>
    <stem>up</stem>
    <notehead>normal</notehead>
    <staff>1</staff>
    <beam number="1">continue</beam>
    <notations>
     <technical>
      <string>4</string>
      <fret>11</fret>
     </technical>
    </notations>
   </note>
   <note>
    <pitch>
     <step>D</step>
     <octave>4</octave>
    </pitch>
    <duration>1</duration>
    <voice>1</voice>
    <type>eighth</type>
    <accidental>natural</accidental>
    <stem>up</stem>
    <notehead>normal</notehead>
    <staff>1</staff>
    <beam number="1">end</beam>
    <notations>
     <technical>
      <string>4</string>
      <fret>12</fret>
     </technical>
    </notations>
   </note>
   <note>
    <pitch>
     <step>E</step>
     <alter>-1</alter>
     <octave>4</octave>
    </pitch>
    <duration>1</duration>
    <voice>1</voice>
    <type>eighth</type>
    <stem>up</stem>
    <notehead>normal</notehead>
    <staff>1</staff>
    <beam number="1">begin</beam>
    <notations>
     <technical>
      <string>3</string>
      <fret>8</fret>
     </technical>
    </notations>
   </note>
   <note>
    <pitch>
     <step>E</step>
     <octave>4</octave>
    </pitch>
    <duration>1</duration>
    <voice>1</voice>
    <type>eighth</type>
    <accidental>natural</accidental>
    <stem>up</stem>
    <notehead>normal</notehead>
    <staff>1</staff>
    <beam number="1">continue</beam>
    <notations>
     <technical>
      <string>2</string>
      <fret>5</fret>
     </technical>
    </notations>
   </note>
   <note>
    <pitch>
     <step>F</step>
     <octave>4</octave>
    </pitch>
    <duration>1</duration>
    <voice>1</voice>
    <type>eighth</type>
    <accidental>natural</accidental>
    <stem>up</stem>
    <notehead>normal</notehead>
    <staff>1</staff>
    <beam number="1">end</beam>
    <notations>
     <technical>
      <string>2</string>
      <fret>6</fret>
     </technical>
    </notations>
   </note>
   <note>
    <pitch>
     <step>G</step>
     <alter>-1</alter>
     <octave>4</octave>
    </pitch>
    <duration>1</duration>
    <voice>1</voice>
    <type>eighth</type>
    <stem>up</stem>
    <notehead>normal</notehead>
    <staff>1</staff>
    <beam number="1">begin</beam>
    <notations>
     <technical>
      <string>2</string>
      <fret>7</fret>
     </technical>
    </notations>
   </note>
   <note>
    <pitch>
     <step>G</step>
     <octave>4</octave>
    </pitch>
    <duration>1</duration>
    <voice>1</voice>
    <type>eighth</type>
    <accidental>natural</accidental>
    <stem>up</stem>
    <notehead>normal</notehead>
    <staff>1</staff>
    <beam number="1">continue</beam>
    <notations>
     <technical>
      <string>2</string>
      <fret>8</fret>
     </technical>
    </notations>
   </note>
   <note>
    <pitch>
     <step>A</step>
     <alter>-1</alter>
     <octave>4</octave>
    </pitch>
    <duration>1</duration>
    <voice>1</voice>
    <type>eighth</type>
    <stem>up</stem>
    <notehead>normal</notehead>
    <staff>1</staff>
    <beam number="1">end</beam>
    <notations>
     <technical>
      <string>2</string>
      <fret>9</fret>
     </technical>
    </notations>
   </note>
   <note>
    <pitch>
     <step>A</step>
     <octave>4</octave>
    </pitch>
    <duration>1</duration>
    <voice>1</voice>
    <type>eighth</type>
    <accidental>natural</accidental>
    <stem>down</stem>
    <notehead>normal</notehead>
    <staff>1</staff>
    <beam number="1">begin</beam>
    <notations>
     <technical>
      <string>2</string>
      <fret>10</fret>
     </technical>
    </notations>
   </note>
   <note>
    <pitch>
     <step>B</step>
     <alter>-1</alter>
     <octave>4</octave>
    </pitch>
    <duration>1</duration>
    <voice>1</voice>
    <type>eighth</type>
    <accidental>flat</accidental>
    <stem>down</stem>
    <notehead>normal</notehead>
    <staff>1</staff>
    <beam number="1">continue</beam>
    <notations>
     <technical>
      <string>2</string>
      <fret>11</fret>
     </technical>
    </notations>
   </note>
   <note>
    <pitch>
     <step>C</step>
     <alter>-1</alter>
     <octave>5</octave>
    </pitch>
    <duration>1</duration>
    <voice>1</voice>
    <type>eighth</type>
    <stem>down</stem>
    <notehead>normal</notehead>
    <staff>1</staff>
    <beam number="1">end</beam>
    <notations>
     <technical>
      <string>2</string>
      <fret>12</fret>
     </technical>
    </notations>
   </note>
  </measure>
  <measure number="15">
   <attributes>
    <key>
     <fifths>-7</fifths>
     <mode>major</mode>
    </key>
   </attributes>
   <note>
    <pitch>
     <step>C</step>
     <octave>4</octave>
    </pitch>
    <duration>1</duration>
    <voice>1</voice>
    <type>eighth</type>
    <accidental>natural</accidental>
    <stem>up</stem>
    <notehead>normal</notehead>
    <staff>1</staff>
    <beam number="1">begin</beam>
    <notations>
     <technical>
      <string>4</string>
      <fret>10</fret>
     </technical>
    </notations>
   </note>
   <note>
    <pitch>
     <step>D</step>
     <alter>-1</alter>
     <octave>4</octave>
    </pitch>
    <duration>1</duration>
    <voice>1</voice>
    <type>eighth</type>
    <stem>up</stem>
    <notehead>normal</notehead>
    <staff>1</staff>
    <beam number="1">continue</beam>
    <notations>
     <technical>
      <string>4</string>
      <fret>11</fret>
     </technical>
    </notations>
   </note>
   <note>
    <pitch>
     <step>D</step>
     <octave>4</octave>
    </pitch>
    <duration>1</duration>
    <voice>1</voice>
    <type>eighth</type>
    <accidental>natural</accidental>
    <stem>up</stem>
    <notehead>normal</notehead>
    <staff>1</staff>
    <beam number="1">end</beam>
    <notations>
     <technical>
      <string>4</string>
      <fret>12</fret>
     </technical>
    </notations>
   </note>
   <note>
    <pitch>
     <step>E</step>
     <alter>-1</alter>
     <octave>4</octave>
    </pitch>
    <duration>1</duration>
    <voice>1</voice>
    <type>eighth</type>
    <stem>up</stem>
    <notehead>normal</notehead>
    <staff>1</staff>
    <beam number="1">begin</beam>
    <notations>
     <technical>
      <string>3</string>
      <fret>8</fret>
     </technical>
    </notations>
   </note>
   <note>
    <pitch>
     <step>F</step>
     <alter>-1</alter>
     <octave>4</octave>
    </pitch>
    <duration>1</duration>
    <voice>1</voice>
    <type>eighth</type>
    <stem>up</stem>
    <notehead>normal</notehead>
    <staff>1</staff>
    <beam number="1">continue</beam>
    <notations>
     <technical>
      <string>2</string>
      <fret>5</fret>
     </technical>
    </notations>
   </note>
   <note>
    <pitch>
     <step>F</step>
     <octave>4</octave>
    </pitch>
    <duration>1</duration>
    <voice>1</voice>
    <type>eighth</type>
    <accidental>natural</accidental>
    <stem>up</stem>
    <notehead>normal</notehead>
    <staff>1</staff>
    <beam number="1">end</beam>
    <notations>
     <technical>
      <string>2</string>
      <fret>6</fret>
     </technical>
    </notations>
   </note>
   <note>
    <pitch>
     <step>G</step>
     <alter>-1</alter>
     <octave>4</octave>
    </pitch>
    <duration>1</duration>
    <voice>1</voice>
    <type>eighth</type>
    <stem>up</stem>
    <notehead>normal</notehead>
    <staff>1</staff>
    <beam number="1">begin</beam>
    <notations>
     <technical>
      <string>2</string>
      <fret>7</fret>
     </technical>
    </notations>
   </note>
   <note>
    <pitch>
     <step>G</step>
     <octave>4</octave>
    </pitch>
    <duration>1</duration>
    <voice>1</voice>
    <type>eighth</type>
    <accidental>natural</accidental>
    <stem>up</stem>
    <notehead>normal</notehead>
    <staff>1</staff>
    <beam number="1">continue</beam>
    <notations>
     <technical>
      <string>2</string>
      <fret>8</fret>
     </technical>
    </notations>
   </note>
   <note>
    <pitch>
     <step>A</step>
     <alter>-1</alter>
     <octave>4</octave>
    </pitch>
    <duration>1</duration>
    <voice>1</voice>
    <type>eighth</type>
    <stem>up</stem>
    <notehead>normal</notehead>
    <staff>1</staff>
    <beam number="1">end</beam>
    <notations>
     <technical>
      <string>2</string>
      <fret>9</fret>
     </technical>
    </notations>
   </note>
   <note>
    <pitch>
     <step>A</step>
     <octave>4</octave>
    </pitch>
    <duration>1</duration>
    <voice>1</voice>
    <type>eighth</type>
    <accidental>natural</accidental>
    <stem>down</stem>
    <notehead>normal</notehead>
    <staff>1</staff>
    <beam number="1">begin</beam>
    <notations>
     <technical>
      <string>2</string>
      <fret>10</fret>
     </technical>
    </notations>
   </note>
   <note>
    <pitch>
     <step>B</step>
     <alter>-1</alter>
     <octave>4</octave>
    </pitch>
    <duration>1</duration>
    <voice>1</voice>
    <type>eighth</type>
    <stem>down</stem>
    <notehead>normal</notehead>
    <staff>1</staff>
    <beam number="1">continue</beam>
    <notations>
     <technical>
      <string>2</string>
      <fret>11</fret>
     </technical>
    </notations>
   </note>
   <note>
    <pitch>
     <step>C</step>
     <alter>-1</alter>
     <octave>5</octave>
    </pitch>
    <duration>1</duration>
    <voice>1</voice>
    <type>eighth</type>
    <stem>down</stem>
    <notehead>normal</notehead>
    <staff>1</staff>
    <beam number="1">end</beam>
    <notations>
     <technical>
      <string>2</string>
      <fret>12</fret>
     </technical>
    </notations>
   </note>
  </measure>
 </part>
</score-partwise>
