<svg xmlns="http://www.w3.org/2000/svg" width="52" height="80" viewBox="0 0 52 80">
  <metadata><?xpacket begin="﻿" id="W5M0MpCehiHzreSzNTczkc9d"?>
<x:xmpmeta xmlns:x="adobe:ns:meta/" x:xmptk="Adobe XMP Core 5.6-c138 79.159824, 2016/09/14-01:09:01        ">
   <rdf:RDF xmlns:rdf="http://www.w3.org/1999/02/22-rdf-syntax-ns#">
      <rdf:Description rdf:about=""/>
   </rdf:RDF>
</x:xmpmeta>
                                                                                                    
                                                                                                    
                                                                                                    
                                                                                                    
                                                                                                    
                                                                                                    
                                                                                                    
                                                                                                    
                                                                                                    
                                                                                                    
                                                                                                    
                                                                                                    
                                                                                                    
                                                                                                    
                                                                                                    
                                                                                                    
                                                                                                    
                                                                                                    
                                                                                                    
                                                                                                    
                           
<?xpacket end="w"?></metadata>
<defs>
    <style>
      .cls-1 {
        fill-rule: evenodd;
      }
    </style>
  </defs>
  <path id="形状_3" data-name="形状 3" class="cls-1" d="M0,0H10.179V80H0V0Z"/>
  <path id="形状_2" data-name="形状 2" class="cls-1" d="M13.679,80.057H17.07V40.707c2.034-.04,2.044.813,5.611,6.411,2.189,3.435,3.957,5.867,1.525,8.7,0.933,2.379,4.729,1.475,5.423.791,0.914-2.831,2.825-8.948,7.287-8.475s6.6,4.5,7.23,13.9S42.166,75.676,37.31,75.819s-5.6.231-5.7-1.751,0.106-1.458.565-2.09c1.721,0.152,5.344-.454,4.971-4.011a5.663,5.663,0,0,0-2.768-3.9c-2.371-1.443-4.179-1-6.27.226-1.154.678-1.928,1.952-2.2,4.237-0.251,2.084.3,3.629,0.226,6.554,2.585,2.053,5.118,4.658,10.619,4.746C42.029,79.915,51.814,76.493,51.6,60.4c-0.136-10.272-5.117-15.907-8.247-17.684-2.195-1.246-7.913-1.233-9.885,1.243s-3.045,3.964-4.293,5.311C23.054,42.163,21.987,40,21.987,40s1.052-2.133,7.178-9.231c1.249,1.346,2.322,2.832,4.3,5.307s7.695,2.487,9.891,1.242c3.131-1.776,8.116-7.406,8.252-17.671C51.818,3.561,42.026.142,36.739,0.226c-5.505.088-8.039,2.69-10.626,4.742,0.07,2.923-.477,4.466-0.226,6.549,0.275,2.284,1.05,3.557,2.2,4.234,2.092,1.228,3.9,1.668,6.274.226a5.658,5.658,0,0,0,2.77-3.9c0.374-3.555-3.252-4.16-4.974-4.009C31.7,7.442,31.487,7.965,31.6,5.984s0.85-1.893,5.709-1.75,7.466,4.384,6.839,13.776S41.374,31.426,36.909,31.9s-6.377-5.639-7.291-8.469c-0.694-.683-4.492-1.587-5.426.79,2.433,2.831.664,5.262-1.526,8.694-3.57,5.594-3.579,6.447-5.615,6.407V0H13.657V40Z"/>
  M0,0h10.179v80h-10.179v-80zm13.679,80.057h3.391v-39.35c2.034,-0.04,2.044,0.813,5.611,6.411c2.189,3.435,3.957,5.867,1.525,8.7c0.933,2.379,4.729,1.475,5.423,0.791c0.914,-2.831,2.825,-8.948,7.287,-8.475s6.6,4.5,7.23,13.9s-1.98,13.642,-6.836,13.785s-5.6,0.231,-5.7,-1.751s0.106,-1.458,0.565,-2.09c1.721,0.152,5.344,-0.454,4.971,-4.011a5.663,5.663,0,0,0,-2.768,-3.9c-2.371,-1.443,-4.179,-1,-6.27,0.226c-1.154,0.678,-1.928,1.952,-2.2,4.237c-0.251,2.084,0.3,3.629,0.226,6.554c2.585,2.053,5.118,4.658,10.619,4.746c5.276,0.085,15.061,-3.337,14.847,-19.43c-0.136,-10.272,-5.117,-15.907,-8.247,-17.684c-2.195,-1.246,-7.913,-1.233,-9.885,1.243s-3.045,3.964,-4.293,5.311c-6.121,-7.107,-7.188,-9.27,-7.188,-9.27s1.052,-2.133,7.178,-9.231c1.249,1.346,2.322,2.832,4.3,5.307s7.695,2.487,9.891,1.242c3.131,-1.776,8.116,-7.406,8.252,-17.671c0.21,-16.086,-9.582,-19.505,-14.869,-19.421c-5.505,0.088,-8.039,2.69,-10.626,4.742c0.07,2.923,-0.477,4.466,-0.226,6.549c0.275,2.284,1.05,3.557,2.2,4.234c2.092,1.228,3.9,1.668,6.274,0.226a5.658,5.658,0,0,0,2.77,-3.9c0.374,-3.555,-3.252,-4.16,-4.974,-4.009c-0.457,-0.626,-0.67,-0.103,-0.557,-2.084s0.85,-1.893,5.709,-1.75s7.466,4.384,6.839,13.776s-2.774,13.416,-7.239,13.89s-6.377,-5.639,-7.291,-8.469c-0.694,-0.683,-4.492,-1.587,-5.426,0.79c2.433,2.831,0.664,5.262,-1.526,8.694c-3.57,5.594,-3.579,6.447,-5.615,6.407v-39.322h-3.394v40z
</svg>
